<?xml version="1.0" encoding="utf-8" standalone="no"?>
<!DOCTYPE svg PUBLIC "-//W3C//DTD SVG 1.1//EN"
  "http://www.w3.org/Graphics/SVG/1.1/DTD/svg11.dtd">
<!-- Created with matplotlib (https://matplotlib.org/) -->
<svg height="720pt" version="1.1" viewBox="0 0 1008 720" width="1008pt" xmlns="http://www.w3.org/2000/svg" xmlns:xlink="http://www.w3.org/1999/xlink">
 <defs>
  <style type="text/css">
*{stroke-linecap:butt;stroke-linejoin:round;}
  </style>
 </defs>
 <g id="figure_1">
  <g id="patch_1">
   <path d="M 0 720 
L 1008 720 
L 1008 0 
L 0 0 
z
" style="fill:#ffffff;"/>
  </g>
  <g id="axes_1">
   <g id="patch_2">
    <path d="M 80.64 662.4 
L 987.84 662.4 
L 987.84 14.4 
L 80.64 14.4 
z
" style="fill:#ffffff;"/>
   </g>
   <g id="line2d_1">
    <path clip-path="url(#pa1b1e893e5)" d="M 80.64 178.546223 
L 93.6 178.546223 
L 94.896 210.664885 
L 96.516 245.003271 
L 98.136 274.313271 
L 99.756 299.683199 
L 101.376 321.897402 
L 103.32 345.197284 
L 105.264 365.529698 
L 107.208 383.446383 
L 109.152 399.365048 
L 111.096 413.608571 
L 113.364 428.444796 
L 115.632 441.662217 
L 117.9 453.509733 
L 120.168 464.185619 
L 122.436 473.850062 
L 124.704 482.634102 
L 127.296 491.733168 
L 129.888 499.957024 
L 132.48 507.415811 
L 135.072 514.201204 
L 137.664 520.39024 
L 140.256 526.048196 
L 143.172 531.84769 
L 146.088 537.113079 
L 149.004 541.901967 
L 151.92 546.263729 
L 154.836 550.24097 
L 157.752 553.870686 
L 160.992 557.535273 
L 164.232 560.849263 
L 167.472 563.846304 
L 170.712 566.555837 
L 174.276 569.235069 
L 177.84 571.627986 
L 181.404 573.761164 
L 185.292 575.819495 
L 189.18 577.623347 
L 193.392 579.317634 
L 197.604 580.767266 
L 202.14 582.081334 
L 206.676 583.163965 
L 211.536 584.092452 
L 216.72 584.845428 
L 221.904 585.378411 
L 227.088 585.713857 
L 233.568 585.885209 
L 240.048 585.812099 
L 246.528 585.523348 
L 254.304 584.927035 
L 262.08 584.092793 
L 269.856 583.051961 
L 278.928 581.612017 
L 289.296 579.712411 
L 299.664 577.584576 
L 311.328 574.963849 
L 324.288 571.820604 
L 338.544 568.137207 
L 355.392 563.546831 
L 374.832 558.012785 
L 399.456 550.753338 
L 433.152 540.561388 
L 529.056 511.418913 
L 561.456 501.868253 
L 589.968 493.687934 
L 615.888 486.473387 
L 640.512 479.847749 
L 663.84 473.80413 
L 685.872 468.330088 
L 706.608 463.408422 
L 726.048 459.017733 
L 744.192 455.132938 
L 762.336 451.472088 
L 779.184 448.289967 
L 796.032 445.334 
L 811.584 442.821571 
L 827.136 440.532184 
L 841.392 438.643388 
L 855.648 436.969124 
L 868.608 435.645339 
L 881.568 434.522329 
L 894.528 433.612449 
L 907.488 432.928897 
L 920.448 432.485803 
L 941.184 432.119954 
L 990.432 432.119954 
L 990.432 432.119954 
" style="fill:none;stroke:#999999;stroke-linecap:square;stroke-width:2.5;"/>
   </g>
   <g id="line2d_2">
    <path clip-path="url(#pa1b1e893e5)" d="M 80.64 366.895002 
L 83.232 366.895002 
L 83.88 389.136865 
L 84.852 413.586026 
L 85.824 431.734 
L 86.796 446.008091 
L 88.092 461.132643 
L 89.388 473.252909 
L 90.684 483.295857 
L 91.98 491.824026 
L 93.6 500.898819 
L 95.22 508.640984 
L 96.84 515.361301 
L 98.784 522.374732 
L 100.728 528.482874 
L 102.672 533.867889 
L 104.616 538.66197 
L 106.884 543.638542 
L 109.152 548.062097 
L 111.42 552.021212 
L 114.012 556.063919 
L 116.604 559.667264 
L 119.196 562.892295 
L 121.788 565.787315 
L 124.704 568.697898 
L 127.62 571.28477 
L 130.536 573.58449 
L 133.776 575.839653 
L 137.016 577.812404 
L 140.256 579.532058 
L 143.82 581.16128 
L 147.384 582.543635 
L 151.272 583.7998 
L 155.16 584.821246 
L 159.372 585.692632 
L 163.908 586.389818 
L 168.768 586.894707 
L 173.952 587.195453 
L 179.46 587.286347 
L 185.616 587.155079 
L 192.42 586.776347 
L 199.872 586.137678 
L 208.62 585.15868 
L 218.016 583.90328 
L 230.976 581.933967 
L 247.824 579.122259 
L 273.744 574.538128 
L 352.8 560.444514 
L 392.976 553.568397 
L 434.448 546.704039 
L 478.512 539.643993 
L 526.464 532.194824 
L 578.304 524.369776 
L 636.624 515.796386 
L 702.72 506.311518 
L 779.184 495.570232 
L 871.2 482.87416 
L 990.432 466.642151 
L 990.432 466.642151 
" style="fill:none;stroke:#008ab8;stroke-linecap:square;stroke-width:2.5;"/>
   </g>
   <g id="line2d_3">
    <path clip-path="url(#pa1b1e893e5)" d="M 80.64 488.842773 
L 83.232 488.842773 
L 84.204 500.279893 
L 85.176 508.540382 
L 86.148 514.953791 
L 87.12 520.166303 
L 88.416 525.850468 
L 89.712 530.524881 
L 91.008 534.478288 
L 92.628 538.676388 
L 94.248 542.25569 
L 95.868 545.36363 
L 97.812 548.610072 
L 99.756 551.44081 
L 102.024 554.327617 
L 104.292 556.854273 
L 106.884 559.384877 
L 109.476 561.602074 
L 112.392 563.785528 
L 115.308 565.691384 
L 118.548 567.53184 
L 121.788 569.1202 
L 125.352 570.61343 
L 128.916 571.871569 
L 132.804 573.005293 
L 136.692 573.914893 
L 140.904 574.671625 
L 145.44 575.245246 
L 149.976 575.591446 
L 154.836 575.733187 
L 160.02 575.647739 
L 165.204 575.34229 
L 170.712 574.80232 
L 176.868 573.966966 
L 183.348 572.858338 
L 190.476 571.408738 
L 195.336 570.452137 
L 204.732 571.116001 
L 214.128 571.580573 
L 225.792 571.927085 
L 238.752 572.068888 
L 253.008 571.991002 
L 269.856 571.655503 
L 289.296 571.022975 
L 311.328 570.07526 
L 338.544 568.667201 
L 341.136 568.462165 
L 364.464 565.944817 
L 390.384 562.913782 
L 418.896 559.354804 
L 451.296 555.080788 
L 486.288 550.238525 
L 523.872 544.814418 
L 549.792 541.096889 
L 710.496 525.706512 
L 894.528 507.873478 
L 990.432 498.466701 
L 990.432 498.466701 
" style="fill:none;stroke:#ffed00;stroke-dasharray:9.25,4;stroke-dashoffset:0;stroke-width:2.5;"/>
   </g>
   <g id="line2d_4">
    <path clip-path="url(#pa1b1e893e5)" d="M 80.64 474.960189 
L 83.232 474.960189 
L 84.204 486.78742 
L 85.176 495.331338 
L 86.148 501.966787 
L 87.12 507.362027 
L 88.416 513.249378 
L 89.712 518.095881 
L 91.008 522.200402 
L 92.628 526.567518 
L 94.248 530.301324 
L 96.192 534.157625 
L 98.136 537.495172 
L 100.08 540.431225 
L 102.348 543.457364 
L 104.616 546.140659 
L 107.208 548.87184 
L 110.124 551.601178 
L 113.04 554.037696 
L 116.28 556.466733 
L 119.844 558.862952 
L 123.732 561.208479 
L 127.944 563.491312 
L 132.48 565.703935 
L 137.664 567.977231 
L 143.172 570.148128 
L 149.328 572.330686 
L 156.132 574.498072 
L 158.4 575.066625 
L 163.584 576.084983 
L 168.444 576.818887 
L 173.304 577.335317 
L 178.164 577.630254 
L 183.024 577.700229 
L 187.884 577.543072 
L 192.744 577.158531 
L 197.604 576.548736 
L 202.464 575.718495 
L 207.648 574.598457 
L 212.832 573.248599 
L 218.016 571.684233 
L 221.904 570.531826 
L 230.976 571.521049 
L 240.048 572.293055 
L 249.12 572.854727 
L 259.488 573.254661 
L 269.856 573.418784 
L 280.224 573.372494 
L 291.888 573.100021 
L 304.848 572.561695 
L 319.104 571.727522 
L 334.656 570.576323 
L 351.504 569.093935 
L 369.648 567.271158 
L 390.384 564.950217 
L 412.416 562.253055 
L 437.04 559.002307 
L 462.96 555.350795 
L 490.176 551.296164 
L 519.984 546.624488 
L 551.088 541.514628 
L 582.192 536.179644 
L 584.784 535.801895 
L 659.952 528.311351 
L 741.6 519.949527 
L 825.84 511.100863 
L 910.08 502.029879 
L 990.432 493.160261 
L 990.432 493.160261 
" style="fill:none;stroke:#c46637;stroke-linecap:square;stroke-width:2.5;"/>
   </g>
   <g id="matplotlib.axis_1">
    <g id="xtick_1">
     <g id="line2d_5">
      <path clip-path="url(#pa1b1e893e5)" d="M 80.64 662.4 
L 80.64 14.4 
" style="fill:none;stroke:#000000;stroke-linecap:square;stroke-width:0.2;"/>
     </g>
     <g id="line2d_6">
      <defs>
       <path d="M 0 0 
L 0 3.5 
" id="mf4c90200b4" style="stroke:#000000;stroke-width:0.8;"/>
      </defs>
      <g>
       <use style="stroke:#000000;stroke-width:0.8;" x="80.64" xlink:href="#mf4c90200b4" y="662.4"/>
      </g>
     </g>
     <g id="text_1">
      <!-- 0 -->
      <defs>
       <path d="M 52.203125 35.796875 
Q 52.203125 17.28125 46.359375 8.140625 
Q 40.53125 -0.984375 28.515625 -0.984375 
Q 17 -0.984375 10.984375 8.359375 
Q 4.984375 17.71875 4.984375 35.796875 
Q 4.984375 54.4375 10.796875 63.46875 
Q 16.609375 72.515625 28.515625 72.515625 
Q 40.140625 72.515625 46.171875 63.078125 
Q 52.203125 53.65625 52.203125 35.796875 
z
M 13.1875 35.796875 
Q 13.1875 20.21875 16.84375 13.109375 
Q 20.515625 6 28.515625 6 
Q 36.625 6 40.25 13.203125 
Q 43.890625 20.40625 43.890625 35.796875 
Q 43.890625 51.171875 40.25 58.328125 
Q 36.625 65.484375 28.515625 65.484375 
Q 20.515625 65.484375 16.84375 58.421875 
Q 13.1875 51.375 13.1875 35.796875 
z
" id="OpenSans-Regular-48"/>
      </defs>
      <g transform="translate(75.637461 682.697266)scale(0.175 -0.175)">
       <use xlink:href="#OpenSans-Regular-48"/>
      </g>
     </g>
    </g>
    <g id="xtick_2">
     <g id="line2d_7">
      <path clip-path="url(#pa1b1e893e5)" d="M 210.24 662.4 
L 210.24 14.4 
" style="fill:none;stroke:#000000;stroke-linecap:square;stroke-width:0.2;"/>
     </g>
     <g id="line2d_8">
      <g>
       <use style="stroke:#000000;stroke-width:0.8;" x="210.24" xlink:href="#mf4c90200b4" y="662.4"/>
      </g>
     </g>
     <g id="text_2">
      <!-- 5 -->
      <defs>
       <path d="M 27.203125 43.609375 
Q 38.484375 43.609375 44.953125 38.015625 
Q 51.421875 32.421875 51.421875 22.703125 
Q 51.421875 11.625 44.359375 5.3125 
Q 37.3125 -0.984375 24.90625 -0.984375 
Q 12.84375 -0.984375 6.5 2.875 
L 6.5 10.6875 
Q 9.90625 8.5 14.984375 7.25 
Q 20.0625 6 25 6 
Q 33.59375 6 38.34375 10.046875 
Q 43.109375 14.109375 43.109375 21.78125 
Q 43.109375 36.71875 24.8125 36.71875 
Q 20.171875 36.71875 12.40625 35.296875 
L 8.203125 37.984375 
L 10.890625 71.390625 
L 46.390625 71.390625 
L 46.390625 63.921875 
L 17.828125 63.921875 
L 16.015625 42.484375 
Q 21.625 43.609375 27.203125 43.609375 
z
" id="OpenSans-Regular-53"/>
      </defs>
      <g transform="translate(205.237461 682.697266)scale(0.175 -0.175)">
       <use xlink:href="#OpenSans-Regular-53"/>
      </g>
     </g>
    </g>
    <g id="xtick_3">
     <g id="line2d_9">
      <path clip-path="url(#pa1b1e893e5)" d="M 339.84 662.4 
L 339.84 14.4 
" style="fill:none;stroke:#000000;stroke-linecap:square;stroke-width:0.2;"/>
     </g>
     <g id="line2d_10">
      <g>
       <use style="stroke:#000000;stroke-width:0.8;" x="339.84" xlink:href="#mf4c90200b4" y="662.4"/>
      </g>
     </g>
     <g id="text_3">
      <!-- 10 -->
      <defs>
       <path d="M 34.90625 0 
L 27 0 
L 27 50.875 
Q 27 57.234375 27.390625 62.890625 
Q 26.375 61.859375 25.09375 60.734375 
Q 23.828125 59.625 13.484375 51.21875 
L 9.1875 56.78125 
L 28.078125 71.390625 
L 34.90625 71.390625 
z
" id="OpenSans-Regular-49"/>
      </defs>
      <g transform="translate(329.834922 682.697266)scale(0.175 -0.175)">
       <use xlink:href="#OpenSans-Regular-49"/>
       <use x="57.177734" xlink:href="#OpenSans-Regular-48"/>
      </g>
     </g>
    </g>
    <g id="xtick_4">
     <g id="line2d_11">
      <path clip-path="url(#pa1b1e893e5)" d="M 469.44 662.4 
L 469.44 14.4 
" style="fill:none;stroke:#000000;stroke-linecap:square;stroke-width:0.2;"/>
     </g>
     <g id="line2d_12">
      <g>
       <use style="stroke:#000000;stroke-width:0.8;" x="469.44" xlink:href="#mf4c90200b4" y="662.4"/>
      </g>
     </g>
     <g id="text_4">
      <!-- 15 -->
      <g transform="translate(459.434922 682.697266)scale(0.175 -0.175)">
       <use xlink:href="#OpenSans-Regular-49"/>
       <use x="57.177734" xlink:href="#OpenSans-Regular-53"/>
      </g>
     </g>
    </g>
    <g id="xtick_5">
     <g id="line2d_13">
      <path clip-path="url(#pa1b1e893e5)" d="M 599.04 662.4 
L 599.04 14.4 
" style="fill:none;stroke:#000000;stroke-linecap:square;stroke-width:0.2;"/>
     </g>
     <g id="line2d_14">
      <g>
       <use style="stroke:#000000;stroke-width:0.8;" x="599.04" xlink:href="#mf4c90200b4" y="662.4"/>
      </g>
     </g>
     <g id="text_5">
      <!-- 20 -->
      <defs>
       <path d="M 51.8125 0 
L 4.890625 0 
L 4.890625 6.984375 
L 23.6875 25.875 
Q 32.28125 34.578125 35.015625 38.28125 
Q 37.75 42 39.109375 45.515625 
Q 40.484375 49.03125 40.484375 53.078125 
Q 40.484375 58.796875 37.015625 62.140625 
Q 33.546875 65.484375 27.390625 65.484375 
Q 22.953125 65.484375 18.96875 64.015625 
Q 14.984375 62.546875 10.109375 58.6875 
L 5.8125 64.203125 
Q 15.671875 72.40625 27.296875 72.40625 
Q 37.359375 72.40625 43.0625 67.25 
Q 48.78125 62.109375 48.78125 53.421875 
Q 48.78125 46.625 44.96875 39.984375 
Q 41.15625 33.34375 30.71875 23.1875 
L 15.09375 7.90625 
L 15.09375 7.515625 
L 51.8125 7.515625 
z
" id="OpenSans-Regular-50"/>
      </defs>
      <g transform="translate(589.034922 682.697266)scale(0.175 -0.175)">
       <use xlink:href="#OpenSans-Regular-50"/>
       <use x="57.177734" xlink:href="#OpenSans-Regular-48"/>
      </g>
     </g>
    </g>
    <g id="xtick_6">
     <g id="line2d_15">
      <path clip-path="url(#pa1b1e893e5)" d="M 728.64 662.4 
L 728.64 14.4 
" style="fill:none;stroke:#000000;stroke-linecap:square;stroke-width:0.2;"/>
     </g>
     <g id="line2d_16">
      <g>
       <use style="stroke:#000000;stroke-width:0.8;" x="728.64" xlink:href="#mf4c90200b4" y="662.4"/>
      </g>
     </g>
     <g id="text_6">
      <!-- 25 -->
      <g transform="translate(718.634922 682.697266)scale(0.175 -0.175)">
       <use xlink:href="#OpenSans-Regular-50"/>
       <use x="57.177734" xlink:href="#OpenSans-Regular-53"/>
      </g>
     </g>
    </g>
    <g id="xtick_7">
     <g id="line2d_17">
      <path clip-path="url(#pa1b1e893e5)" d="M 858.24 662.4 
L 858.24 14.4 
" style="fill:none;stroke:#000000;stroke-linecap:square;stroke-width:0.2;"/>
     </g>
     <g id="line2d_18">
      <g>
       <use style="stroke:#000000;stroke-width:0.8;" x="858.24" xlink:href="#mf4c90200b4" y="662.4"/>
      </g>
     </g>
     <g id="text_7">
      <!-- 30 -->
      <defs>
       <path d="M 49.125 54.59375 
Q 49.125 47.75 45.28125 43.40625 
Q 41.453125 39.0625 34.421875 37.59375 
L 34.421875 37.203125 
Q 43.015625 36.140625 47.15625 31.734375 
Q 51.3125 27.34375 51.3125 20.21875 
Q 51.3125 10.015625 44.234375 4.515625 
Q 37.15625 -0.984375 24.125 -0.984375 
Q 18.453125 -0.984375 13.734375 -0.125 
Q 9.03125 0.734375 4.59375 2.875 
L 4.59375 10.59375 
Q 9.234375 8.296875 14.484375 7.09375 
Q 19.734375 5.90625 24.421875 5.90625 
Q 42.921875 5.90625 42.921875 20.40625 
Q 42.921875 33.40625 22.515625 33.40625 
L 15.484375 33.40625 
L 15.484375 40.375 
L 22.609375 40.375 
Q 30.953125 40.375 35.828125 44.0625 
Q 40.71875 47.75 40.71875 54.296875 
Q 40.71875 59.515625 37.125 62.5 
Q 33.546875 65.484375 27.390625 65.484375 
Q 22.703125 65.484375 18.546875 64.203125 
Q 14.40625 62.9375 9.078125 59.515625 
L 4.984375 64.984375 
Q 9.375 68.453125 15.109375 70.421875 
Q 20.84375 72.40625 27.203125 72.40625 
Q 37.59375 72.40625 43.359375 67.640625 
Q 49.125 62.890625 49.125 54.59375 
z
" id="OpenSans-Regular-51"/>
      </defs>
      <g transform="translate(848.234922 682.697266)scale(0.175 -0.175)">
       <use xlink:href="#OpenSans-Regular-51"/>
       <use x="57.177734" xlink:href="#OpenSans-Regular-48"/>
      </g>
     </g>
    </g>
    <g id="xtick_8">
     <g id="line2d_19">
      <path clip-path="url(#pa1b1e893e5)" d="M 987.84 662.4 
L 987.84 14.4 
" style="fill:none;stroke:#000000;stroke-linecap:square;stroke-width:0.2;"/>
     </g>
     <g id="line2d_20">
      <g>
       <use style="stroke:#000000;stroke-width:0.8;" x="987.84" xlink:href="#mf4c90200b4" y="662.4"/>
      </g>
     </g>
     <g id="text_8">
      <!-- 35 -->
      <g transform="translate(977.834922 682.697266)scale(0.175 -0.175)">
       <use xlink:href="#OpenSans-Regular-51"/>
       <use x="57.177734" xlink:href="#OpenSans-Regular-53"/>
      </g>
     </g>
    </g>
    <g id="text_9">
     <!-- $U_{N10}$ [m/s] -->
     <defs>
      <path d="M 15.484375 72.90625 
L 25.390625 72.90625 
L 16.796875 28.609375 
Q 16.265625 25.640625 16.046875 23.703125 
Q 15.828125 21.78125 15.828125 20.3125 
Q 15.828125 13.578125 19.578125 10.078125 
Q 23.34375 6.59375 30.609375 6.59375 
Q 40.046875 6.59375 45.28125 11.765625 
Q 50.53125 16.9375 52.78125 28.609375 
L 61.375 72.90625 
L 71.296875 72.90625 
L 62.5 27.390625 
Q 59.625 12.640625 51.5625 5.609375 
Q 43.5 -1.421875 29.5 -1.421875 
Q 18.5625 -1.421875 12.1875 4.078125 
Q 5.8125 9.578125 5.8125 19 
Q 5.8125 20.703125 6.046875 22.828125 
Q 6.296875 24.953125 6.78125 27.390625 
z
" id="DejaVuSans-Oblique-85"/>
      <path d="M 16.890625 72.90625 
L 30.171875 72.90625 
L 50.296875 10.40625 
L 62.5 72.90625 
L 72.125 72.90625 
L 57.90625 0 
L 44.578125 0 
L 24.515625 62.890625 
L 12.3125 0 
L 2.6875 0 
z
" id="DejaVuSans-Oblique-78"/>
      <path d="M 12.40625 8.296875 
L 28.515625 8.296875 
L 28.515625 63.921875 
L 10.984375 60.40625 
L 10.984375 69.390625 
L 28.421875 72.90625 
L 38.28125 72.90625 
L 38.28125 8.296875 
L 54.390625 8.296875 
L 54.390625 0 
L 12.40625 0 
z
" id="DejaVuSans-49"/>
      <path d="M 31.78125 66.40625 
Q 24.171875 66.40625 20.328125 58.90625 
Q 16.5 51.421875 16.5 36.375 
Q 16.5 21.390625 20.328125 13.890625 
Q 24.171875 6.390625 31.78125 6.390625 
Q 39.453125 6.390625 43.28125 13.890625 
Q 47.125 21.390625 47.125 36.375 
Q 47.125 51.421875 43.28125 58.90625 
Q 39.453125 66.40625 31.78125 66.40625 
z
M 31.78125 74.21875 
Q 44.046875 74.21875 50.515625 64.515625 
Q 56.984375 54.828125 56.984375 36.375 
Q 56.984375 17.96875 50.515625 8.265625 
Q 44.046875 -1.421875 31.78125 -1.421875 
Q 19.53125 -1.421875 13.0625 8.265625 
Q 6.59375 17.96875 6.59375 36.375 
Q 6.59375 54.828125 13.0625 64.515625 
Q 19.53125 74.21875 31.78125 74.21875 
z
" id="DejaVuSans-48"/>
      <path id="OpenSans-Regular-32"/>
      <path d="M 30.421875 -15.828125 
L 8.109375 -15.828125 
L 8.109375 71.390625 
L 30.421875 71.390625 
L 30.421875 64.5 
L 16.3125 64.5 
L 16.3125 -8.890625 
L 30.421875 -8.890625 
z
" id="OpenSans-Regular-91"/>
      <path d="M 76.8125 0 
L 76.8125 34.8125 
Q 76.8125 41.21875 74.078125 44.40625 
Q 71.34375 47.609375 65.578125 47.609375 
Q 58.015625 47.609375 54.390625 43.265625 
Q 50.78125 38.921875 50.78125 29.890625 
L 50.78125 0 
L 42.671875 0 
L 42.671875 34.8125 
Q 42.671875 41.21875 39.9375 44.40625 
Q 37.203125 47.609375 31.390625 47.609375 
Q 23.78125 47.609375 20.234375 43.046875 
Q 16.703125 38.484375 16.703125 28.078125 
L 16.703125 0 
L 8.59375 0 
L 8.59375 53.515625 
L 15.1875 53.515625 
L 16.5 46.1875 
L 16.890625 46.1875 
Q 19.1875 50.09375 23.359375 52.296875 
Q 27.546875 54.5 32.71875 54.5 
Q 45.265625 54.5 49.125 45.40625 
L 49.515625 45.40625 
Q 51.90625 49.609375 56.4375 52.046875 
Q 60.984375 54.5 66.796875 54.5 
Q 75.875 54.5 80.390625 49.828125 
Q 84.90625 45.171875 84.90625 34.90625 
L 84.90625 0 
z
" id="OpenSans-Regular-109"/>
      <path d="M 35.6875 71.390625 
L 9.078125 0 
L 0.984375 0 
L 27.59375 71.390625 
z
" id="OpenSans-Regular-47"/>
      <path d="M 43.109375 14.59375 
Q 43.109375 7.125 37.546875 3.0625 
Q 31.984375 -0.984375 21.921875 -0.984375 
Q 11.28125 -0.984375 5.328125 2.390625 
L 5.328125 9.90625 
Q 9.1875 7.953125 13.59375 6.828125 
Q 18.015625 5.71875 22.125 5.71875 
Q 28.46875 5.71875 31.875 7.734375 
Q 35.296875 9.765625 35.296875 13.921875 
Q 35.296875 17.046875 32.59375 19.265625 
Q 29.890625 21.484375 22.015625 24.515625 
Q 14.546875 27.296875 11.390625 29.375 
Q 8.25 31.453125 6.703125 34.078125 
Q 5.171875 36.71875 5.171875 40.375 
Q 5.171875 46.921875 10.5 50.703125 
Q 15.828125 54.5 25.09375 54.5 
Q 33.734375 54.5 42 50.984375 
L 39.109375 44.390625 
Q 31.0625 47.703125 24.515625 47.703125 
Q 18.75 47.703125 15.8125 45.890625 
Q 12.890625 44.09375 12.890625 40.921875 
Q 12.890625 38.765625 13.984375 37.25 
Q 15.09375 35.75 17.53125 34.375 
Q 19.96875 33.015625 26.90625 30.421875 
Q 36.421875 26.953125 39.765625 23.4375 
Q 43.109375 19.921875 43.109375 14.59375 
z
" id="OpenSans-Regular-115"/>
      <path d="M 2.484375 -8.890625 
L 16.609375 -8.890625 
L 16.609375 64.5 
L 2.484375 64.5 
L 2.484375 71.390625 
L 24.8125 71.390625 
L 24.8125 -15.828125 
L 2.484375 -15.828125 
z
" id="OpenSans-Regular-93"/>
     </defs>
     <g transform="translate(479.4525 707.999219)scale(0.225 -0.225)">
      <use transform="translate(0 0.09375)" xlink:href="#DejaVuSans-Oblique-85"/>
      <use transform="translate(73.193359 -16.3125)scale(0.7)" xlink:href="#DejaVuSans-Oblique-78"/>
      <use transform="translate(125.556641 -16.3125)scale(0.7)" xlink:href="#DejaVuSans-49"/>
      <use transform="translate(170.092773 -16.3125)scale(0.7)" xlink:href="#DejaVuSans-48"/>
      <use transform="translate(217.363281 0.09375)" xlink:href="#OpenSans-Regular-32"/>
      <use transform="translate(243.339844 0.09375)" xlink:href="#OpenSans-Regular-91"/>
      <use transform="translate(276.25 0.09375)" xlink:href="#OpenSans-Regular-109"/>
      <use transform="translate(369.267578 0.09375)" xlink:href="#OpenSans-Regular-47"/>
      <use transform="translate(405.986328 0.09375)" xlink:href="#OpenSans-Regular-115"/>
      <use transform="translate(453.691406 0.09375)" xlink:href="#OpenSans-Regular-93"/>
     </g>
    </g>
   </g>
   <g id="matplotlib.axis_2">
    <g id="ytick_1">
     <g id="line2d_21">
      <path clip-path="url(#pa1b1e893e5)" d="M 80.64 662.4 
L 987.84 662.4 
" style="fill:none;stroke:#000000;stroke-linecap:square;stroke-width:0.2;"/>
     </g>
     <g id="line2d_22">
      <defs>
       <path d="M 0 0 
L -3.5 0 
" id="ma43529729d" style="stroke:#000000;stroke-width:0.8;"/>
      </defs>
      <g>
       <use style="stroke:#000000;stroke-width:0.8;" x="80.64" xlink:href="#ma43529729d" y="662.4"/>
      </g>
     </g>
     <g id="text_10">
      <!-- 0.8 -->
      <defs>
       <path d="M 7.421875 5.171875 
Q 7.421875 8.453125 8.90625 10.125 
Q 10.40625 11.8125 13.1875 11.8125 
Q 16.015625 11.8125 17.59375 10.125 
Q 19.1875 8.453125 19.1875 5.171875 
Q 19.1875 2 17.578125 0.28125 
Q 15.96875 -1.421875 13.1875 -1.421875 
Q 10.6875 -1.421875 9.046875 0.109375 
Q 7.421875 1.65625 7.421875 5.171875 
z
" id="OpenSans-Regular-46"/>
       <path d="M 28.515625 72.40625 
Q 38.28125 72.40625 43.984375 67.859375 
Q 49.703125 63.328125 49.703125 55.328125 
Q 49.703125 50.046875 46.4375 45.703125 
Q 43.171875 41.359375 35.984375 37.796875 
Q 44.671875 33.640625 48.328125 29.078125 
Q 52 24.515625 52 18.5 
Q 52 9.625 45.796875 4.3125 
Q 39.59375 -0.984375 28.8125 -0.984375 
Q 17.390625 -0.984375 11.234375 4.015625 
Q 5.078125 9.03125 5.078125 18.21875 
Q 5.078125 30.46875 20.015625 37.3125 
Q 13.28125 41.109375 10.34375 45.53125 
Q 7.421875 49.953125 7.421875 55.421875 
Q 7.421875 63.1875 13.15625 67.796875 
Q 18.890625 72.40625 28.515625 72.40625 
z
M 13.09375 18.015625 
Q 13.09375 12.15625 17.15625 8.875 
Q 21.234375 5.609375 28.609375 5.609375 
Q 35.890625 5.609375 39.9375 9.03125 
Q 44 12.453125 44 18.40625 
Q 44 23.140625 40.1875 26.828125 
Q 36.375 30.515625 26.90625 33.984375 
Q 19.625 30.859375 16.359375 27.078125 
Q 13.09375 23.296875 13.09375 18.015625 
z
M 28.421875 65.828125 
Q 22.3125 65.828125 18.84375 62.890625 
Q 15.375 59.96875 15.375 55.078125 
Q 15.375 50.59375 18.25 47.359375 
Q 21.140625 44.140625 28.90625 40.921875 
Q 35.890625 43.84375 38.796875 47.21875 
Q 41.703125 50.59375 41.703125 55.078125 
Q 41.703125 60.015625 38.15625 62.921875 
Q 34.625 65.828125 28.421875 65.828125 
z
" id="OpenSans-Regular-56"/>
      </defs>
      <g transform="translate(48.973203 669.048633)scale(0.175 -0.175)">
       <use xlink:href="#OpenSans-Regular-48"/>
       <use x="57.177734" xlink:href="#OpenSans-Regular-46"/>
       <use x="83.789062" xlink:href="#OpenSans-Regular-56"/>
      </g>
     </g>
    </g>
    <g id="ytick_2">
     <g id="line2d_23">
      <path clip-path="url(#pa1b1e893e5)" d="M 80.64 603.490909 
L 987.84 603.490909 
" style="fill:none;stroke:#000000;stroke-linecap:square;stroke-width:0.2;"/>
     </g>
     <g id="line2d_24">
      <g>
       <use style="stroke:#000000;stroke-width:0.8;" x="80.64" xlink:href="#ma43529729d" y="603.490909"/>
      </g>
     </g>
     <g id="text_11">
      <!-- 1.0 -->
      <g transform="translate(48.973203 610.139542)scale(0.175 -0.175)">
       <use xlink:href="#OpenSans-Regular-49"/>
       <use x="57.177734" xlink:href="#OpenSans-Regular-46"/>
       <use x="83.789062" xlink:href="#OpenSans-Regular-48"/>
      </g>
     </g>
    </g>
    <g id="ytick_3">
     <g id="line2d_25">
      <path clip-path="url(#pa1b1e893e5)" d="M 80.64 544.581818 
L 987.84 544.581818 
" style="fill:none;stroke:#000000;stroke-linecap:square;stroke-width:0.2;"/>
     </g>
     <g id="line2d_26">
      <g>
       <use style="stroke:#000000;stroke-width:0.8;" x="80.64" xlink:href="#ma43529729d" y="544.581818"/>
      </g>
     </g>
     <g id="text_12">
      <!-- 1.2 -->
      <g transform="translate(48.973203 551.230451)scale(0.175 -0.175)">
       <use xlink:href="#OpenSans-Regular-49"/>
       <use x="57.177734" xlink:href="#OpenSans-Regular-46"/>
       <use x="83.789062" xlink:href="#OpenSans-Regular-50"/>
      </g>
     </g>
    </g>
    <g id="ytick_4">
     <g id="line2d_27">
      <path clip-path="url(#pa1b1e893e5)" d="M 80.64 485.672727 
L 987.84 485.672727 
" style="fill:none;stroke:#000000;stroke-linecap:square;stroke-width:0.2;"/>
     </g>
     <g id="line2d_28">
      <g>
       <use style="stroke:#000000;stroke-width:0.8;" x="80.64" xlink:href="#ma43529729d" y="485.672727"/>
      </g>
     </g>
     <g id="text_13">
      <!-- 1.4 -->
      <defs>
       <path d="M 55.171875 16.40625 
L 44.578125 16.40625 
L 44.578125 0 
L 36.8125 0 
L 36.8125 16.40625 
L 2.09375 16.40625 
L 2.09375 23.484375 
L 35.984375 71.78125 
L 44.578125 71.78125 
L 44.578125 23.78125 
L 55.171875 23.78125 
z
M 36.8125 23.78125 
L 36.8125 47.515625 
Q 36.8125 54.5 37.3125 63.28125 
L 36.921875 63.28125 
Q 34.578125 58.59375 32.515625 55.515625 
L 10.203125 23.78125 
z
" id="OpenSans-Regular-52"/>
      </defs>
      <g transform="translate(48.973203 492.32136)scale(0.175 -0.175)">
       <use xlink:href="#OpenSans-Regular-49"/>
       <use x="57.177734" xlink:href="#OpenSans-Regular-46"/>
       <use x="83.789062" xlink:href="#OpenSans-Regular-52"/>
      </g>
     </g>
    </g>
    <g id="ytick_5">
     <g id="line2d_29">
      <path clip-path="url(#pa1b1e893e5)" d="M 80.64 426.763636 
L 987.84 426.763636 
" style="fill:none;stroke:#000000;stroke-linecap:square;stroke-width:0.2;"/>
     </g>
     <g id="line2d_30">
      <g>
       <use style="stroke:#000000;stroke-width:0.8;" x="80.64" xlink:href="#ma43529729d" y="426.763636"/>
      </g>
     </g>
     <g id="text_14">
      <!-- 1.6 -->
      <defs>
       <path d="M 5.71875 30.515625 
Q 5.71875 51.5625 13.890625 61.984375 
Q 22.078125 72.40625 38.09375 72.40625 
Q 43.609375 72.40625 46.78125 71.484375 
L 46.78125 64.5 
Q 43.015625 65.71875 38.1875 65.71875 
Q 26.703125 65.71875 20.640625 58.5625 
Q 14.59375 51.421875 14.015625 36.078125 
L 14.59375 36.078125 
Q 19.96875 44.484375 31.59375 44.484375 
Q 41.21875 44.484375 46.75 38.671875 
Q 52.296875 32.859375 52.296875 22.90625 
Q 52.296875 11.765625 46.21875 5.390625 
Q 40.140625 -0.984375 29.78125 -0.984375 
Q 18.703125 -0.984375 12.203125 7.34375 
Q 5.71875 15.671875 5.71875 30.515625 
z
M 29.6875 5.90625 
Q 36.625 5.90625 40.453125 10.28125 
Q 44.28125 14.65625 44.28125 22.90625 
Q 44.28125 29.984375 40.71875 34.03125 
Q 37.15625 38.09375 30.078125 38.09375 
Q 25.6875 38.09375 22.015625 36.28125 
Q 18.359375 34.46875 16.1875 31.296875 
Q 14.015625 28.125 14.015625 24.703125 
Q 14.015625 19.671875 15.96875 15.328125 
Q 17.921875 10.984375 21.5 8.4375 
Q 25.09375 5.90625 29.6875 5.90625 
z
" id="OpenSans-Regular-54"/>
      </defs>
      <g transform="translate(48.973203 433.412269)scale(0.175 -0.175)">
       <use xlink:href="#OpenSans-Regular-49"/>
       <use x="57.177734" xlink:href="#OpenSans-Regular-46"/>
       <use x="83.789062" xlink:href="#OpenSans-Regular-54"/>
      </g>
     </g>
    </g>
    <g id="ytick_6">
     <g id="line2d_31">
      <path clip-path="url(#pa1b1e893e5)" d="M 80.64 367.854545 
L 987.84 367.854545 
" style="fill:none;stroke:#000000;stroke-linecap:square;stroke-width:0.2;"/>
     </g>
     <g id="line2d_32">
      <g>
       <use style="stroke:#000000;stroke-width:0.8;" x="80.64" xlink:href="#ma43529729d" y="367.854545"/>
      </g>
     </g>
     <g id="text_15">
      <!-- 1.8 -->
      <g transform="translate(48.973203 374.503178)scale(0.175 -0.175)">
       <use xlink:href="#OpenSans-Regular-49"/>
       <use x="57.177734" xlink:href="#OpenSans-Regular-46"/>
       <use x="83.789062" xlink:href="#OpenSans-Regular-56"/>
      </g>
     </g>
    </g>
    <g id="ytick_7">
     <g id="line2d_33">
      <path clip-path="url(#pa1b1e893e5)" d="M 80.64 308.945455 
L 987.84 308.945455 
" style="fill:none;stroke:#000000;stroke-linecap:square;stroke-width:0.2;"/>
     </g>
     <g id="line2d_34">
      <g>
       <use style="stroke:#000000;stroke-width:0.8;" x="80.64" xlink:href="#ma43529729d" y="308.945455"/>
      </g>
     </g>
     <g id="text_16">
      <!-- 2.0 -->
      <g transform="translate(48.973203 315.594087)scale(0.175 -0.175)">
       <use xlink:href="#OpenSans-Regular-50"/>
       <use x="57.177734" xlink:href="#OpenSans-Regular-46"/>
       <use x="83.789062" xlink:href="#OpenSans-Regular-48"/>
      </g>
     </g>
    </g>
    <g id="ytick_8">
     <g id="line2d_35">
      <path clip-path="url(#pa1b1e893e5)" d="M 80.64 250.036364 
L 987.84 250.036364 
" style="fill:none;stroke:#000000;stroke-linecap:square;stroke-width:0.2;"/>
     </g>
     <g id="line2d_36">
      <g>
       <use style="stroke:#000000;stroke-width:0.8;" x="80.64" xlink:href="#ma43529729d" y="250.036364"/>
      </g>
     </g>
     <g id="text_17">
      <!-- 2.2 -->
      <g transform="translate(48.973203 256.684996)scale(0.175 -0.175)">
       <use xlink:href="#OpenSans-Regular-50"/>
       <use x="57.177734" xlink:href="#OpenSans-Regular-46"/>
       <use x="83.789062" xlink:href="#OpenSans-Regular-50"/>
      </g>
     </g>
    </g>
    <g id="ytick_9">
     <g id="line2d_37">
      <path clip-path="url(#pa1b1e893e5)" d="M 80.64 191.127273 
L 987.84 191.127273 
" style="fill:none;stroke:#000000;stroke-linecap:square;stroke-width:0.2;"/>
     </g>
     <g id="line2d_38">
      <g>
       <use style="stroke:#000000;stroke-width:0.8;" x="80.64" xlink:href="#ma43529729d" y="191.127273"/>
      </g>
     </g>
     <g id="text_18">
      <!-- 2.4 -->
      <g transform="translate(48.973203 197.775906)scale(0.175 -0.175)">
       <use xlink:href="#OpenSans-Regular-50"/>
       <use x="57.177734" xlink:href="#OpenSans-Regular-46"/>
       <use x="83.789062" xlink:href="#OpenSans-Regular-52"/>
      </g>
     </g>
    </g>
    <g id="ytick_10">
     <g id="line2d_39">
      <path clip-path="url(#pa1b1e893e5)" d="M 80.64 132.218182 
L 987.84 132.218182 
" style="fill:none;stroke:#000000;stroke-linecap:square;stroke-width:0.2;"/>
     </g>
     <g id="line2d_40">
      <g>
       <use style="stroke:#000000;stroke-width:0.8;" x="80.64" xlink:href="#ma43529729d" y="132.218182"/>
      </g>
     </g>
     <g id="text_19">
      <!-- 2.6 -->
      <g transform="translate(48.973203 138.866815)scale(0.175 -0.175)">
       <use xlink:href="#OpenSans-Regular-50"/>
       <use x="57.177734" xlink:href="#OpenSans-Regular-46"/>
       <use x="83.789062" xlink:href="#OpenSans-Regular-54"/>
      </g>
     </g>
    </g>
    <g id="ytick_11">
     <g id="line2d_41">
      <path clip-path="url(#pa1b1e893e5)" d="M 80.64 73.309091 
L 987.84 73.309091 
" style="fill:none;stroke:#000000;stroke-linecap:square;stroke-width:0.2;"/>
     </g>
     <g id="line2d_42">
      <g>
       <use style="stroke:#000000;stroke-width:0.8;" x="80.64" xlink:href="#ma43529729d" y="73.309091"/>
      </g>
     </g>
     <g id="text_20">
      <!-- 2.8 -->
      <g transform="translate(48.973203 79.957724)scale(0.175 -0.175)">
       <use xlink:href="#OpenSans-Regular-50"/>
       <use x="57.177734" xlink:href="#OpenSans-Regular-46"/>
       <use x="83.789062" xlink:href="#OpenSans-Regular-56"/>
      </g>
     </g>
    </g>
    <g id="ytick_12">
     <g id="line2d_43">
      <path clip-path="url(#pa1b1e893e5)" d="M 80.64 14.4 
L 987.84 14.4 
" style="fill:none;stroke:#000000;stroke-linecap:square;stroke-width:0.2;"/>
     </g>
     <g id="line2d_44">
      <g>
       <use style="stroke:#000000;stroke-width:0.8;" x="80.64" xlink:href="#ma43529729d" y="14.4"/>
      </g>
     </g>
     <g id="text_21">
      <!-- 3.0 -->
      <g transform="translate(48.973203 21.048633)scale(0.175 -0.175)">
       <use xlink:href="#OpenSans-Regular-51"/>
       <use x="57.177734" xlink:href="#OpenSans-Regular-46"/>
       <use x="83.789062" xlink:href="#OpenSans-Regular-48"/>
      </g>
     </g>
    </g>
    <g id="text_22">
     <!-- $10^{-3}$ -->
     <defs>
      <path d="M 10.59375 35.5 
L 73.1875 35.5 
L 73.1875 27.203125 
L 10.59375 27.203125 
z
" id="DejaVuSans-8722"/>
      <path d="M 40.578125 39.3125 
Q 47.65625 37.796875 51.625 33 
Q 55.609375 28.21875 55.609375 21.1875 
Q 55.609375 10.40625 48.1875 4.484375 
Q 40.765625 -1.421875 27.09375 -1.421875 
Q 22.515625 -1.421875 17.65625 -0.515625 
Q 12.796875 0.390625 7.625 2.203125 
L 7.625 11.71875 
Q 11.71875 9.328125 16.59375 8.109375 
Q 21.484375 6.890625 26.8125 6.890625 
Q 36.078125 6.890625 40.9375 10.546875 
Q 45.796875 14.203125 45.796875 21.1875 
Q 45.796875 27.640625 41.28125 31.265625 
Q 36.765625 34.90625 28.71875 34.90625 
L 20.21875 34.90625 
L 20.21875 43.015625 
L 29.109375 43.015625 
Q 36.375 43.015625 40.234375 45.921875 
Q 44.09375 48.828125 44.09375 54.296875 
Q 44.09375 59.90625 40.109375 62.90625 
Q 36.140625 65.921875 28.71875 65.921875 
Q 24.65625 65.921875 20.015625 65.03125 
Q 15.375 64.15625 9.8125 62.3125 
L 9.8125 71.09375 
Q 15.4375 72.65625 20.34375 73.4375 
Q 25.25 74.21875 29.59375 74.21875 
Q 40.828125 74.21875 47.359375 69.109375 
Q 53.90625 64.015625 53.90625 55.328125 
Q 53.90625 49.265625 50.4375 45.09375 
Q 46.96875 40.921875 40.578125 39.3125 
z
" id="DejaVuSans-51"/>
     </defs>
     <g transform="translate(40.166953 361.9)rotate(-90)scale(0.2 -0.2)">
      <use transform="translate(0 0.765625)" xlink:href="#DejaVuSans-49"/>
      <use transform="translate(63.623047 0.765625)" xlink:href="#DejaVuSans-48"/>
      <use transform="translate(128.203125 39.046875)scale(0.7)" xlink:href="#DejaVuSans-8722"/>
      <use transform="translate(186.855469 39.046875)scale(0.7)" xlink:href="#DejaVuSans-51"/>
     </g>
    </g>
   </g>
   <g id="line2d_45">
    <path clip-path="url(#pa1b1e893e5)" d="M 105.303611 -1 
L 106.884 47.973531 
L 108.504 92.233144 
L 110.448 138.79261 
L 112.392 179.444269 
L 114.336 215.210626 
L 116.28 246.891095 
L 118.224 275.119695 
L 120.168 300.405713 
L 122.112 323.162955 
L 124.38 346.966796 
L 126.648 368.229664 
L 128.916 387.309685 
L 131.184 404.500698 
L 133.452 420.04608 
L 135.72 434.149107 
L 137.988 446.980912 
L 140.256 458.686579 
L 142.848 470.843539 
L 145.44 481.847934 
L 148.032 491.832748 
L 150.624 500.911272 
L 153.216 509.180603 
L 155.808 516.724457 
L 158.4 523.615381 
L 160.992 529.916559 
L 163.584 535.683282 
L 166.176 540.964137 
L 169.092 546.37752 
L 172.008 551.283794 
L 174.924 555.730013 
L 177.84 559.757581 
L 180.756 563.403078 
L 183.672 566.698954 
L 186.588 569.674069 
L 189.504 572.354206 
L 192.744 575.014169 
L 195.984 577.366704 
L 199.224 579.437005 
L 202.464 581.247602 
L 205.704 582.818675 
L 209.268 584.291821 
L 212.832 585.518744 
L 216.72 586.599128 
L 220.608 587.432043 
L 224.496 588.037564 
L 228.384 588.433651 
L 232.272 588.636428 
L 236.16 588.660404 
L 241.344 588.436694 
L 246.528 587.945916 
L 251.712 587.212392 
L 256.896 586.257579 
L 262.08 585.100489 
L 268.56 583.395257 
L 275.04 581.429328 
L 281.52 579.228054 
L 288 576.813624 
L 295.776 573.662264 
L 303.552 570.26141 
L 311.328 566.636598 
L 320.4 562.154108 
L 329.472 557.427579 
L 339.84 551.760736 
L 350.208 545.843454 
L 361.872 538.923208 
L 374.832 530.948322 
L 387.792 522.712516 
L 402.048 513.393711 
L 417.6 502.963335 
L 434.448 491.402623 
L 453.888 477.787881 
L 475.92 462.079362 
L 503.136 442.384793 
L 544.608 412.054402 
L 592.56 377.041071 
L 619.776 357.453047 
L 641.808 341.867625 
L 661.248 328.386108 
L 678.096 316.954464 
L 693.648 306.647158 
L 709.2 296.610029 
L 723.456 287.67752 
L 736.416 279.805221 
L 749.376 272.193401 
L 761.04 265.58578 
L 772.704 259.22789 
L 784.368 253.139432 
L 794.736 247.97031 
L 805.104 243.045475 
L 815.472 238.380658 
L 824.544 234.525099 
L 833.616 230.892526 
L 842.688 227.494723 
L 851.76 224.343879 
L 860.832 221.452604 
L 868.608 219.190836 
L 876.384 217.137819 
L 884.16 215.302262 
L 891.936 213.693133 
L 899.712 212.319647 
L 907.488 211.191285 
L 915.264 210.317787 
L 923.04 209.709171 
L 930.816 209.375719 
L 933.408 209.327537 
L 936 208.8 
L 990.432 208.8 
L 990.432 208.8 
" style="fill:none;stroke:#999999;stroke-linecap:square;stroke-width:5;"/>
   </g>
   <g id="line2d_46">
    <path clip-path="url(#pa1b1e893e5)" d="M 80.64 434.868664 
L 83.232 434.868664 
L 83.88 452.975493 
L 84.852 472.970646 
L 85.824 487.874266 
L 86.796 499.632509 
L 88.092 512.123595 
L 89.388 522.154385 
L 90.684 530.476623 
L 91.98 537.547752 
L 93.6 545.071226 
L 95.22 551.483307 
L 96.84 557.038063 
L 98.46 561.91125 
L 100.404 567.0347 
L 102.348 571.514604 
L 104.292 575.464853 
L 106.236 578.970062 
L 108.504 582.582102 
L 110.772 585.753688 
L 113.04 588.544495 
L 115.308 591.001021 
L 117.576 593.16019 
L 120.168 595.301694 
L 122.76 597.129673 
L 125.352 598.673471 
L 127.944 599.957389 
L 130.536 601.001932 
L 133.128 601.824707 
L 136.044 602.504314 
L 138.96 602.941971 
L 141.876 603.15488 
L 144.792 603.158644 
L 148.032 602.934934 
L 151.272 602.488916 
L 154.836 601.761792 
L 158.4 600.807411 
L 162.288 599.530419 
L 166.5 597.896522 
L 171.036 595.877563 
L 175.896 593.452447 
L 181.08 590.607656 
L 186.912 587.137893 
L 193.392 583.006854 
L 200.52 578.195319 
L 208.944 572.233525 
L 219.312 564.60447 
L 232.272 554.781857 
L 253.008 538.752113 
L 298.368 503.640722 
L 322.992 484.886418 
L 347.616 466.406297 
L 373.536 447.238112 
L 400.752 427.393466 
L 430.56 405.942654 
L 462.96 382.902755 
L 500.544 356.45632 
L 545.904 324.821938 
L 610.704 279.931066 
L 732.528 195.569298 
L 785.664 158.476894 
L 832.32 125.641777 
L 873.792 96.19504 
L 912.672 68.330142 
L 951.552 40.183758 
L 987.84 13.63397 
L 990.432 11.726585 
L 990.432 11.726585 
" style="fill:none;stroke:#008ab8;stroke-linecap:square;stroke-width:5;"/>
   </g>
   <g id="line2d_47">
    <path clip-path="url(#pa1b1e893e5)" d="M 80.64 434.87092 
L 83.232 434.87092 
L 83.88 452.979407 
L 84.852 472.978154 
L 85.824 487.886861 
L 86.796 499.651855 
L 88.092 512.154814 
L 89.388 522.201082 
L 90.684 530.542727 
L 91.98 537.6375 
L 93.6 545.196929 
L 95.22 551.652567 
L 96.84 557.258978 
L 98.784 563.1101 
L 100.728 568.203144 
L 102.672 572.687935 
L 104.616 576.673267 
L 106.884 580.798895 
L 109.152 584.451594 
L 111.42 587.704233 
L 114.012 591.002886 
L 116.604 593.916267 
L 119.196 596.494265 
L 121.788 598.776182 
L 124.704 601.028421 
L 127.62 602.981775 
L 130.536 604.665447 
L 133.452 606.103439 
L 136.692 607.437368 
L 139.932 608.515922 
L 143.172 609.358864 
L 146.412 609.983327 
L 149.976 610.435905 
L 153.54 610.660396 
L 157.104 610.673055 
L 160.992 610.462776 
L 164.88 610.036065 
L 169.092 609.348923 
L 173.628 608.369601 
L 178.164 607.164804 
L 183.024 605.648502 
L 188.208 603.801563 
L 193.716 601.610281 
L 199.872 598.919169 
L 206.676 595.692403 
L 214.128 591.906852 
L 223.2 587.015972 
L 233.568 581.139215 
L 245.232 574.269199 
L 260.784 564.840817 
L 285.408 549.61831 
L 334.656 519.148328 
L 339.84 515.973201 
L 360.576 498.006904 
L 382.608 478.605627 
L 404.64 458.908796 
L 426.672 438.922325 
L 448.704 418.640058 
L 470.736 398.048786 
L 491.472 378.370946 
L 512.208 358.387392 
L 532.944 338.08018 
L 547.2 323.921441 
L 612 279.035006 
L 731.232 196.470713 
L 785.664 158.476894 
L 832.32 125.641777 
L 873.792 96.19504 
L 912.672 68.330142 
L 951.552 40.183758 
L 987.84 13.63397 
L 990.432 11.726585 
L 990.432 11.726585 
" style="fill:none;stroke:#ffed00;stroke-dasharray:18.5,8;stroke-dashoffset:0;stroke-width:5;"/>
   </g>
   <g id="line2d_48">
    <path clip-path="url(#pa1b1e893e5)" d="M 80.64 434.874464 
L 83.232 434.874464 
L 83.88 452.98556 
L 84.852 472.989951 
L 85.824 487.906651 
L 86.796 499.682258 
L 88.092 512.203883 
L 89.388 522.27448 
L 90.684 530.646646 
L 91.98 537.778613 
L 93.6 545.394628 
L 95.22 551.918863 
L 96.84 557.606686 
L 98.784 563.573508 
L 100.728 568.803077 
L 102.672 573.446401 
L 104.94 578.267698 
L 107.208 582.567929 
L 109.8 586.964612 
L 112.392 590.908599 
L 114.984 594.478507 
L 117.9 598.121979 
L 121.14 601.784045 
L 124.38 605.106347 
L 127.944 608.43213 
L 131.832 611.730126 
L 135.72 614.737724 
L 139.932 617.718736 
L 144.468 620.655221 
L 149.328 623.533841 
L 154.512 626.345018 
L 157.428 627.762067 
L 161.316 629.132272 
L 165.204 630.272823 
L 169.092 631.182447 
L 172.98 631.858988 
L 176.868 632.299887 
L 180.756 632.502629 
L 184.644 632.465148 
L 188.532 632.186172 
L 192.42 631.66554 
L 196.308 630.904419 
L 200.196 629.905486 
L 204.084 628.673008 
L 207.972 627.212846 
L 211.536 625.68065 
L 215.424 623.805974 
L 219.312 621.728916 
L 224.496 618.66357 
L 229.68 615.285422 
L 234.864 611.623185 
L 240.048 607.70564 
L 246.528 602.492138 
L 253.008 596.974436 
L 260.784 590.01622 
L 268.56 582.755048 
L 277.632 573.976409 
L 288 563.625248 
L 299.664 551.668714 
L 313.92 536.717481 
L 329.472 520.084741 
L 347.616 500.343948 
L 367.056 478.849717 
L 386.496 457.023354 
L 405.936 434.863586 
L 425.376 412.355309 
L 443.52 391.013211 
L 461.664 369.325947 
L 478.512 348.857931 
L 495.36 328.051749 
L 512.208 306.886661 
L 529.056 285.341354 
L 544.608 265.097006 
L 560.16 244.49245 
L 575.712 223.509638 
L 583.488 212.870621 
L 586.08 210.472397 
L 634.032 168.830058 
L 674.208 133.651796 
L 710.496 101.583994 
L 744.192 71.510278 
L 775.296 43.462075 
L 805.104 16.295462 
L 823.909846 -1 
L 823.909846 -1 
" style="fill:none;stroke:#c46637;stroke-linecap:square;stroke-width:5;"/>
   </g>
   <g id="patch_3">
    <path d="M 80.64 662.4 
L 80.64 14.4 
" style="fill:none;stroke:#000000;stroke-linecap:square;stroke-linejoin:miter;stroke-width:0.8;"/>
   </g>
   <g id="patch_4">
    <path d="M 987.84 662.4 
L 987.84 14.4 
" style="fill:none;stroke:#000000;stroke-linecap:square;stroke-linejoin:miter;stroke-width:0.8;"/>
   </g>
   <g id="patch_5">
    <path d="M 80.64 662.4 
L 987.84 662.4 
" style="fill:none;stroke:#000000;stroke-linecap:square;stroke-linejoin:miter;stroke-width:0.8;"/>
   </g>
   <g id="patch_6">
    <path d="M 80.64 14.4 
L 987.84 14.4 
" style="fill:none;stroke:#000000;stroke-linecap:square;stroke-linejoin:miter;stroke-width:0.8;"/>
   </g>
   <g id="text_23">
    <g id="patch_7">
     <path d="M 458.2025 82.19 
L 610.2775 82.19 
L 610.2775 32.965 
L 458.2025 32.965 
z
" style="fill:#ffffff;stroke:#000000;stroke-linejoin:miter;"/>
    </g>
    <!-- $C_{D}^{N10}$, $C_{E}^{N10}$ -->
    <defs>
     <path d="M 69.484375 67.28125 
L 67.484375 56.890625 
Q 62.796875 61.625 57.546875 63.921875 
Q 52.296875 66.21875 46.1875 66.21875 
Q 37.84375 66.21875 31.515625 62.203125 
Q 25.203125 58.203125 20.609375 50 
Q 17.671875 44.734375 16.125 38.84375 
Q 14.59375 32.953125 14.59375 27 
Q 14.59375 17.046875 19.75 11.8125 
Q 24.90625 6.59375 34.71875 6.59375 
Q 41.5 6.59375 47.75 8.765625 
Q 54 10.9375 59.90625 15.28125 
L 57.625 3.609375 
Q 51.8125 1.125 45.875 -0.140625 
Q 39.9375 -1.421875 33.984375 -1.421875 
Q 19.96875 -1.421875 12.078125 6.1875 
Q 4.203125 13.8125 4.203125 27.390625 
Q 4.203125 36.078125 7.203125 44.46875 
Q 10.203125 52.875 15.828125 59.8125 
Q 21.78125 67.1875 29.421875 70.703125 
Q 37.0625 74.21875 47.21875 74.21875 
Q 53.46875 74.21875 59.0625 72.484375 
Q 64.65625 70.75 69.484375 67.28125 
z
" id="DejaVuSans-Oblique-67"/>
     <path d="M 16.890625 72.90625 
L 38.09375 72.90625 
Q 54.984375 72.90625 63.59375 65.75 
Q 72.21875 58.59375 72.21875 44.484375 
Q 72.21875 35.15625 68.9375 26.53125 
Q 65.671875 17.921875 59.90625 12.015625 
Q 54.109375 5.953125 45.171875 2.96875 
Q 36.234375 0 24.03125 0 
L 2.6875 0 
z
M 25.203125 64.796875 
L 14.203125 8.109375 
L 27.09375 8.109375 
Q 43.65625 8.109375 52.734375 17.625 
Q 61.8125 27.15625 61.8125 44.484375 
Q 61.8125 54.984375 55.953125 59.890625 
Q 50.09375 64.796875 37.59375 64.796875 
z
" id="DejaVuSans-Oblique-68"/>
     <path d="M 17.09375 11.625 
L 17.828125 10.5 
Q 16.546875 5.609375 14.15625 -0.859375 
Q 11.765625 -7.328125 9.1875 -12.890625 
L 3.078125 -12.890625 
Q 4.390625 -7.8125 5.96875 -0.34375 
Q 7.5625 7.125 8.203125 11.625 
z
" id="OpenSans-Regular-44"/>
     <path d="M 16.890625 72.90625 
L 62.984375 72.90625 
L 61.375 64.59375 
L 25.09375 64.59375 
L 20.90625 43.015625 
L 55.71875 43.015625 
L 54.109375 34.71875 
L 19.28125 34.71875 
L 14.203125 8.296875 
L 51.3125 8.296875 
L 49.703125 0 
L 2.6875 0 
z
" id="DejaVuSans-Oblique-69"/>
    </defs>
    <g transform="translate(466.4525 66.24)scale(0.275 -0.275)">
     <use transform="translate(0 0.765625)" xlink:href="#DejaVuSans-Oblique-67"/>
     <use transform="translate(77.02474 39.046875)scale(0.7)" xlink:href="#DejaVuSans-Oblique-78"/>
     <use transform="translate(129.388021 39.046875)scale(0.7)" xlink:href="#DejaVuSans-49"/>
     <use transform="translate(173.924154 39.046875)scale(0.7)" xlink:href="#DejaVuSans-48"/>
     <use transform="translate(69.824219 -26.578125)scale(0.7)" xlink:href="#DejaVuSans-Oblique-68"/>
     <use transform="translate(221.194661 0.765625)" xlink:href="#OpenSans-Regular-44"/>
     <use transform="translate(245.70638 0.765625)" xlink:href="#OpenSans-Regular-32"/>
     <use transform="translate(271.682943 0.765625)" xlink:href="#DejaVuSans-Oblique-67"/>
     <use transform="translate(348.707682 39.046875)scale(0.7)" xlink:href="#DejaVuSans-Oblique-78"/>
     <use transform="translate(401.070964 39.046875)scale(0.7)" xlink:href="#DejaVuSans-49"/>
     <use transform="translate(445.607096 39.046875)scale(0.7)" xlink:href="#DejaVuSans-48"/>
     <use transform="translate(341.507161 -26.578125)scale(0.7)" xlink:href="#DejaVuSans-Oblique-69"/>
    </g>
   </g>
   <g id="legend_1">
    <g id="patch_8">
     <path d="M 229.845 381.671719 
L 381.447539 381.671719 
Q 385.197539 381.671719 385.197539 377.921719 
L 385.197539 267.285 
Q 385.197539 263.535 381.447539 263.535 
L 229.845 263.535 
Q 226.095 263.535 226.095 267.285 
L 226.095 377.921719 
Q 226.095 381.671719 229.845 381.671719 
z
" style="fill:#ffffff;opacity:0.8;stroke:#cccccc;stroke-linejoin:miter;"/>
    </g>
    <g id="line2d_49">
     <path d="M 233.595 278.71957 
L 271.095 278.71957 
" style="fill:none;stroke:#999999;stroke-linecap:square;stroke-width:5;"/>
    </g>
    <g id="line2d_50"/>
    <g id="text_24">
     <!-- NCAR -->
     <defs>
      <path d="M 65.578125 0 
L 56.109375 0 
L 17.09375 59.90625 
L 16.703125 59.90625 
Q 17.484375 49.359375 17.484375 40.578125 
L 17.484375 0 
L 9.8125 0 
L 9.8125 71.390625 
L 19.1875 71.390625 
L 58.109375 11.71875 
L 58.5 11.71875 
Q 58.40625 13.03125 58.0625 20.1875 
Q 57.71875 27.34375 57.8125 30.421875 
L 57.8125 71.390625 
L 65.578125 71.390625 
z
" id="OpenSans-Regular-78"/>
      <path d="M 40.375 64.984375 
Q 28.609375 64.984375 21.796875 57.140625 
Q 14.984375 49.3125 14.984375 35.6875 
Q 14.984375 21.6875 21.546875 14.03125 
Q 28.125 6.390625 40.28125 6.390625 
Q 47.75 6.390625 57.328125 9.078125 
L 57.328125 1.8125 
Q 49.90625 -0.984375 39.015625 -0.984375 
Q 23.25 -0.984375 14.671875 8.59375 
Q 6.109375 18.171875 6.109375 35.796875 
Q 6.109375 46.828125 10.234375 55.125 
Q 14.359375 63.421875 22.140625 67.90625 
Q 29.9375 72.40625 40.484375 72.40625 
Q 51.703125 72.40625 60.109375 68.3125 
L 56.59375 61.1875 
Q 48.484375 64.984375 40.375 64.984375 
z
" id="OpenSans-Regular-67"/>
      <path d="M 54.6875 0 
L 45.796875 22.703125 
L 17.1875 22.703125 
L 8.40625 0 
L 0 0 
L 28.21875 71.6875 
L 35.203125 71.6875 
L 63.28125 0 
z
M 43.21875 30.171875 
L 34.90625 52.296875 
Q 33.296875 56.5 31.59375 62.59375 
Q 30.515625 57.90625 28.515625 52.296875 
L 20.125 30.171875 
z
" id="OpenSans-Regular-65"/>
      <path d="M 18.109375 29.6875 
L 18.109375 0 
L 9.8125 0 
L 9.8125 71.390625 
L 29.390625 71.390625 
Q 42.53125 71.390625 48.796875 66.359375 
Q 55.078125 61.328125 55.078125 51.21875 
Q 55.078125 37.0625 40.71875 32.078125 
L 60.109375 0 
L 50.296875 0 
L 33.015625 29.6875 
z
M 18.109375 36.8125 
L 29.5 36.8125 
Q 38.28125 36.8125 42.375 40.296875 
Q 46.484375 43.796875 46.484375 50.78125 
Q 46.484375 57.859375 42.3125 60.984375 
Q 38.140625 64.109375 28.90625 64.109375 
L 18.109375 64.109375 
z
" id="OpenSans-Regular-82"/>
     </defs>
     <g transform="translate(286.095 285.28207)scale(0.1875 -0.1875)">
      <use xlink:href="#OpenSans-Regular-78"/>
      <use x="75.390625" xlink:href="#OpenSans-Regular-67"/>
      <use x="138.476562" xlink:href="#OpenSans-Regular-65"/>
      <use x="201.757812" xlink:href="#OpenSans-Regular-82"/>
     </g>
    </g>
    <g id="line2d_51">
     <path d="M 233.595 306.8475 
L 271.095 306.8475 
" style="fill:none;stroke:#008ab8;stroke-linecap:square;stroke-width:5;"/>
    </g>
    <g id="line2d_52"/>
    <g id="text_25">
     <!-- ECMWF -->
     <defs>
      <path d="M 49.609375 0 
L 9.8125 0 
L 9.8125 71.390625 
L 49.609375 71.390625 
L 49.609375 64.015625 
L 18.109375 64.015625 
L 18.109375 41.015625 
L 47.703125 41.015625 
L 47.703125 33.6875 
L 18.109375 33.6875 
L 18.109375 7.421875 
L 49.609375 7.421875 
z
" id="OpenSans-Regular-69"/>
      <path d="M 41.40625 0 
L 17.1875 63.28125 
L 16.796875 63.28125 
Q 17.484375 55.765625 17.484375 45.40625 
L 17.484375 0 
L 9.8125 0 
L 9.8125 71.390625 
L 22.3125 71.390625 
L 44.921875 12.5 
L 45.3125 12.5 
L 68.109375 71.390625 
L 80.515625 71.390625 
L 80.515625 0 
L 72.21875 0 
L 72.21875 46 
Q 72.21875 53.90625 72.90625 63.1875 
L 72.515625 63.1875 
L 48.09375 0 
z
" id="OpenSans-Regular-77"/>
      <path d="M 72.125 0 
L 63.921875 0 
L 49.515625 47.796875 
Q 48.484375 50.984375 47.21875 55.8125 
Q 45.953125 60.640625 45.90625 61.625 
Q 44.828125 55.171875 42.484375 47.515625 
L 28.515625 0 
L 20.3125 0 
L 1.3125 71.390625 
L 10.109375 71.390625 
L 21.390625 27.296875 
Q 23.734375 18.015625 24.8125 10.5 
Q 26.125 19.4375 28.71875 27.984375 
L 41.5 71.390625 
L 50.296875 71.390625 
L 63.71875 27.59375 
Q 66.0625 20.015625 67.671875 10.5 
Q 68.609375 17.4375 71.1875 27.390625 
L 82.421875 71.390625 
L 91.21875 71.390625 
z
" id="OpenSans-Regular-87"/>
      <path d="M 18.109375 0 
L 9.8125 0 
L 9.8125 71.390625 
L 49.609375 71.390625 
L 49.609375 64.015625 
L 18.109375 64.015625 
L 18.109375 37.890625 
L 47.703125 37.890625 
L 47.703125 30.515625 
L 18.109375 30.515625 
z
" id="OpenSans-Regular-70"/>
     </defs>
     <g transform="translate(286.095 313.41)scale(0.1875 -0.1875)">
      <use xlink:href="#OpenSans-Regular-69"/>
      <use x="55.615234" xlink:href="#OpenSans-Regular-67"/>
      <use x="118.701172" xlink:href="#OpenSans-Regular-77"/>
      <use x="208.984375" xlink:href="#OpenSans-Regular-87"/>
      <use x="301.5625" xlink:href="#OpenSans-Regular-70"/>
     </g>
    </g>
    <g id="line2d_53">
     <path d="M 233.595 334.97543 
L 271.095 334.97543 
" style="fill:none;stroke:#ffed00;stroke-dasharray:18.5,8;stroke-dashoffset:0;stroke-width:5;"/>
    </g>
    <g id="line2d_54"/>
    <g id="text_26">
     <!-- COARE 3.0 -->
     <defs>
      <path d="M 71.78125 35.796875 
Q 71.78125 18.65625 63.109375 8.828125 
Q 54.4375 -0.984375 39.015625 -0.984375 
Q 23.25 -0.984375 14.671875 8.65625 
Q 6.109375 18.3125 6.109375 35.890625 
Q 6.109375 53.328125 14.703125 62.921875 
Q 23.296875 72.515625 39.109375 72.515625 
Q 54.5 72.515625 63.140625 62.75 
Q 71.78125 52.984375 71.78125 35.796875 
z
M 14.890625 35.796875 
Q 14.890625 21.296875 21.0625 13.796875 
Q 27.25 6.296875 39.015625 6.296875 
Q 50.875 6.296875 56.921875 13.765625 
Q 62.984375 21.234375 62.984375 35.796875 
Q 62.984375 50.203125 56.953125 57.640625 
Q 50.921875 65.09375 39.109375 65.09375 
Q 27.25 65.09375 21.0625 57.59375 
Q 14.890625 50.09375 14.890625 35.796875 
z
" id="OpenSans-Regular-79"/>
     </defs>
     <g transform="translate(286.095 341.53793)scale(0.1875 -0.1875)">
      <use xlink:href="#OpenSans-Regular-67"/>
      <use x="63.054688" xlink:href="#OpenSans-Regular-79"/>
      <use x="140.904297" xlink:href="#OpenSans-Regular-65"/>
      <use x="204.185547" xlink:href="#OpenSans-Regular-82"/>
      <use x="266.001953" xlink:href="#OpenSans-Regular-69"/>
      <use x="321.617188" xlink:href="#OpenSans-Regular-32"/>
      <use x="347.59375" xlink:href="#OpenSans-Regular-51"/>
      <use x="404.771484" xlink:href="#OpenSans-Regular-46"/>
      <use x="431.382812" xlink:href="#OpenSans-Regular-48"/>
     </g>
    </g>
    <g id="line2d_55">
     <path d="M 233.595 363.103359 
L 271.095 363.103359 
" style="fill:none;stroke:#c46637;stroke-linecap:square;stroke-width:5;"/>
    </g>
    <g id="line2d_56"/>
    <g id="text_27">
     <!-- COARE 3.6 -->
     <g transform="translate(286.095 369.665859)scale(0.1875 -0.1875)">
      <use xlink:href="#OpenSans-Regular-67"/>
      <use x="63.054688" xlink:href="#OpenSans-Regular-79"/>
      <use x="140.904297" xlink:href="#OpenSans-Regular-65"/>
      <use x="204.185547" xlink:href="#OpenSans-Regular-82"/>
      <use x="266.001953" xlink:href="#OpenSans-Regular-69"/>
      <use x="321.617188" xlink:href="#OpenSans-Regular-32"/>
      <use x="347.59375" xlink:href="#OpenSans-Regular-51"/>
      <use x="404.771484" xlink:href="#OpenSans-Regular-46"/>
      <use x="431.382812" xlink:href="#OpenSans-Regular-54"/>
     </g>
    </g>
   </g>
  </g>
 </g>
 <defs>
  <clipPath id="pa1b1e893e5">
   <rect height="648" width="907.2" x="80.64" y="14.4"/>
  </clipPath>
 </defs>
</svg>
