<?xml version="1.0" encoding="UTF-8" standalone="no"?>
<svg
   xmlns:dc="http://purl.org/dc/elements/1.1/"
   xmlns:cc="http://creativecommons.org/ns#"
   xmlns:rdf="http://www.w3.org/1999/02/22-rdf-syntax-ns#"
   xmlns:svg="http://www.w3.org/2000/svg"
   xmlns="http://www.w3.org/2000/svg"
   xmlns:sodipodi="http://sodipodi.sourceforge.net/DTD/sodipodi-0.dtd"
   xmlns:inkscape="http://www.inkscape.org/namespaces/inkscape"
   id="svg8"
   version="1.1"
   viewBox="0 0 91.375 66.697692"
   height="66.697693mm"
   width="91.375mm"
   sodipodi:docname="logo.svg"
   inkscape:version="0.92+devel unknown">
  <sodipodi:namedview
     pagecolor="#ffffff"
     bordercolor="#666666"
     inkscape:document-rotation="0"
     borderopacity="1"
     objecttolerance="10"
     gridtolerance="10"
     guidetolerance="10"
     inkscape:pageopacity="0"
     inkscape:pageshadow="2"
     inkscape:window-width="1920"
     inkscape:window-height="1031"
     id="namedview53"
     showgrid="false"
     fit-margin-left="6"
     fit-margin-top="6"
     fit-margin-bottom="6"
     fit-margin-right="6"
     inkscape:zoom="0.39918733"
     inkscape:cx="-445.57527"
     inkscape:cy="391.70984"
     inkscape:window-x="0"
     inkscape:window-y="0"
     inkscape:window-maximized="0"
     inkscape:current-layer="svg8" />
  <defs
     id="defs2">
    <marker
       style="overflow:visible"
       id="marker8200"
       refX="0"
       refY="0"
       orient="auto">
      <path
         transform="matrix(0.4,0,0,0.4,4,0)"
         style="fill:#000000;fill-opacity:1;fill-rule:evenodd;stroke:#000000;stroke-width:1.00000003pt;stroke-opacity:1"
         d="M 0,0 5,-5 -12.5,0 5,5 Z"
         id="path8198"
         inkscape:connector-curvature="0" />
    </marker>
    <marker
       style="overflow:visible"
       id="marker6786"
       refX="0"
       refY="0"
       orient="auto">
      <path
         transform="scale(0.6)"
         d="M 8.7185878,4.0337352 -2.2072895,0.01601326 8.7185884,-4.0017078 c -1.7454984,2.3720609 -1.7354408,5.6174519 -6e-7,8.035443 z"
         style="fill:#000000;fill-opacity:1;fill-rule:evenodd;stroke:#000000;stroke-width:0.625;stroke-linejoin:round;stroke-opacity:1"
         id="path6784"
         inkscape:connector-curvature="0" />
    </marker>
    <marker
       style="overflow:visible"
       id="Arrow2Mend"
       refX="0"
       refY="0"
       orient="auto">
      <path
         transform="scale(-0.6)"
         d="M 8.7185878,4.0337352 -2.2072895,0.01601326 8.7185884,-4.0017078 c -1.7454984,2.3720609 -1.7354408,5.6174519 -6e-7,8.035443 z"
         style="fill:#000000;fill-opacity:1;fill-rule:evenodd;stroke:#000000;stroke-width:0.625;stroke-linejoin:round;stroke-opacity:1"
         id="path4310"
         inkscape:connector-curvature="0" />
    </marker>
    <marker
       style="overflow:visible"
       id="marker6594"
       refX="0"
       refY="0"
       orient="auto">
      <path
         transform="matrix(0.3,0,0,0.3,-0.69,0)"
         d="M 8.7185878,4.0337352 -2.2072895,0.01601326 8.7185884,-4.0017078 c -1.7454984,2.3720609 -1.7354408,5.6174519 -6e-7,8.035443 z"
         style="fill:#000000;fill-opacity:1;fill-rule:evenodd;stroke:#000000;stroke-width:0.625;stroke-linejoin:round;stroke-opacity:1"
         id="path6592"
         inkscape:connector-curvature="0" />
    </marker>
    <marker
       style="overflow:visible"
       id="marker6506"
       refX="0"
       refY="0"
       orient="auto">
      <path
         transform="matrix(0.3,0,0,0.3,-0.69,0)"
         d="M 8.7185878,4.0337352 -2.2072895,0.01601326 8.7185884,-4.0017078 c -1.7454984,2.3720609 -1.7354408,5.6174519 -6e-7,8.035443 z"
         style="fill:#000000;fill-opacity:1;fill-rule:evenodd;stroke:#000000;stroke-width:0.625;stroke-linejoin:round;stroke-opacity:1"
         id="path6504"
         inkscape:connector-curvature="0" />
    </marker>
    <marker
       style="overflow:visible"
       id="marker6424"
       refX="0"
       refY="0"
       orient="auto">
      <path
         transform="scale(0.6)"
         d="M 8.7185878,4.0337352 -2.2072895,0.01601326 8.7185884,-4.0017078 c -1.7454984,2.3720609 -1.7354408,5.6174519 -6e-7,8.035443 z"
         style="fill:#000000;fill-opacity:1;fill-rule:evenodd;stroke:#000000;stroke-width:0.625;stroke-linejoin:round;stroke-opacity:1"
         id="path6422"
         inkscape:connector-curvature="0" />
    </marker>
    <marker
       style="overflow:visible"
       id="marker6348"
       refX="0"
       refY="0"
       orient="auto">
      <path
         transform="matrix(-1.1,0,0,-1.1,-1.1,0)"
         d="M 8.7185878,4.0337352 -2.2072895,0.01601326 8.7185884,-4.0017078 c -1.7454984,2.3720609 -1.7354408,5.6174519 -6e-7,8.035443 z"
         style="fill:#000000;fill-opacity:1;fill-rule:evenodd;stroke:#000000;stroke-width:0.625;stroke-linejoin:round;stroke-opacity:1"
         id="path6346"
         inkscape:connector-curvature="0" />
    </marker>
    <marker
       style="overflow:visible"
       id="marker6110"
       refX="0"
       refY="0"
       orient="auto">
      <path
         transform="matrix(-1.1,0,0,-1.1,-1.1,0)"
         d="M 8.7185878,4.0337352 -2.2072895,0.01601326 8.7185884,-4.0017078 c -1.7454984,2.3720609 -1.7354408,5.6174519 -6e-7,8.035443 z"
         style="fill:#000000;fill-opacity:1;fill-rule:evenodd;stroke:#000000;stroke-width:0.625;stroke-linejoin:round;stroke-opacity:1"
         id="path6108"
         inkscape:connector-curvature="0" />
    </marker>
    <marker
       style="overflow:visible"
       id="marker6046"
       refX="0"
       refY="0"
       orient="auto">
      <path
         transform="matrix(0.2,0,0,0.2,1.2,0)"
         style="fill:#000000;fill-opacity:1;fill-rule:evenodd;stroke:#000000;stroke-width:1.00000003pt;stroke-opacity:1"
         d="M 0,0 5,-5 -12.5,0 5,5 Z"
         id="path6044"
         inkscape:connector-curvature="0" />
    </marker>
    <marker
       style="overflow:visible"
       id="Arrow1Sstart"
       refX="0"
       refY="0"
       orient="auto">
      <path
         transform="matrix(0.2,0,0,0.2,1.2,0)"
         style="fill:#000000;fill-opacity:1;fill-rule:evenodd;stroke:#000000;stroke-width:1.00000003pt;stroke-opacity:1"
         d="M 0,0 5,-5 -12.5,0 5,5 Z"
         id="path4295"
         inkscape:connector-curvature="0" />
    </marker>
    <marker
       style="overflow:visible"
       id="marker5926"
       refX="0"
       refY="0"
       orient="auto">
      <path
         transform="scale(0.6)"
         d="M 8.7185878,4.0337352 -2.2072895,0.01601326 8.7185884,-4.0017078 c -1.7454984,2.3720609 -1.7354408,5.6174519 -6e-7,8.035443 z"
         style="fill:#000000;fill-opacity:1;fill-rule:evenodd;stroke:#000000;stroke-width:0.625;stroke-linejoin:round;stroke-opacity:1"
         id="path5924"
         inkscape:connector-curvature="0" />
    </marker>
    <marker
       style="overflow:visible"
       id="Arrow2Sstart"
       refX="0"
       refY="0"
       orient="auto">
      <path
         transform="matrix(0.3,0,0,0.3,-0.69,0)"
         d="M 8.7185878,4.0337352 -2.2072895,0.01601326 8.7185884,-4.0017078 c -1.7454984,2.3720609 -1.7354408,5.6174519 -6e-7,8.035443 z"
         style="fill:#000000;fill-opacity:1;fill-rule:evenodd;stroke:#000000;stroke-width:0.625;stroke-linejoin:round;stroke-opacity:1"
         id="path4313"
         inkscape:connector-curvature="0" />
    </marker>
    <marker
       style="overflow:visible"
       id="Arrow2Mstart"
       refX="0"
       refY="0"
       orient="auto">
      <path
         transform="scale(0.6)"
         d="M 8.7185878,4.0337352 -2.2072895,0.01601326 8.7185884,-4.0017078 c -1.7454984,2.3720609 -1.7354408,5.6174519 -6e-7,8.035443 z"
         style="fill:#000000;fill-opacity:1;fill-rule:evenodd;stroke:#000000;stroke-width:0.625;stroke-linejoin:round;stroke-opacity:1"
         id="path4307"
         inkscape:connector-curvature="0" />
    </marker>
    <marker
       style="overflow:visible"
       id="Arrow2Lend"
       refX="0"
       refY="0"
       orient="auto">
      <path
         transform="matrix(-1.1,0,0,-1.1,-1.1,0)"
         d="M 8.7185878,4.0337352 -2.2072895,0.01601326 8.7185884,-4.0017078 c -1.7454984,2.3720609 -1.7354408,5.6174519 -6e-7,8.035443 z"
         style="fill:#000000;fill-opacity:1;fill-rule:evenodd;stroke:#000000;stroke-width:0.625;stroke-linejoin:round;stroke-opacity:1"
         id="path4304"
         inkscape:connector-curvature="0" />
    </marker>
    <marker
       style="overflow:visible"
       id="Arrow1Mstart"
       refX="0"
       refY="0"
       orient="auto">
      <path
         transform="matrix(0.4,0,0,0.4,4,0)"
         style="fill:#000000;fill-opacity:1;fill-rule:evenodd;stroke:#000000;stroke-width:1.00000003pt;stroke-opacity:1"
         d="M 0,0 5,-5 -12.5,0 5,5 Z"
         id="path4289"
         inkscape:connector-curvature="0" />
    </marker>
    <marker
       style="overflow:visible"
       id="Arrow1Lstart"
       refX="0"
       refY="0"
       orient="auto">
      <path
         transform="matrix(0.8,0,0,0.8,10,0)"
         style="fill:#000000;fill-opacity:1;fill-rule:evenodd;stroke:#000000;stroke-width:1.00000003pt;stroke-opacity:1"
         d="M 0,0 5,-5 -12.5,0 5,5 Z"
         id="path4283"
         inkscape:connector-curvature="0" />
    </marker>
  </defs>
  <metadata
     id="metadata5">
    <rdf:RDF>
      <cc:Work
         rdf:about="">
        <dc:format>image/svg+xml</dc:format>
        <dc:type
           rdf:resource="http://purl.org/dc/dcmitype/StillImage" />
        <dc:title></dc:title>
      </cc:Work>
    </rdf:RDF>
  </metadata>
  <g
     transform="matrix(0.48360348,0,0,0.48360348,-1.4587495,2.4103322)"
     id="layer1">
    <g
       id="g8793">
      <g
         id="g8784">
        <path
           id="path5839"
           d="m 132.23947,50.056311 c 0,17.31571 -14.03724,31.35287 -31.35304,31.35287 -17.31571,0 -31.352869,-14.03716 -31.352871,-31.35287 -4e-6,-17.31572 14.037157,-31.35288 31.352871,-31.35288"
           style="fill:none;stroke:#000000;stroke-width:8;stroke-miterlimit:4;stroke-dasharray:none;stroke-opacity:1"
           inkscape:connector-curvature="0" />
        <path
           id="path5848"
           d="m 41.131213,66.526473 134.424087,0.0126"
           style="fill:none;fill-rule:evenodd;stroke:#000000;stroke-width:8;stroke-linecap:square;stroke-linejoin:miter;stroke-miterlimit:4;stroke-dasharray:none;stroke-opacity:1;paint-order:normal"
           inkscape:connector-curvature="0" />
        <path
           d="m 96.681011,23.176261 c -0.593863,3.29539 -2.678866,6.71883 -2.678866,6.71883 L 122.76773,18.703431 94.002145,7.5117607 c 0,0 2.085003,3.4234503 2.678866,6.7188303 0.634737,3.52218 0.501247,4.47284 0.501247,4.47284 0,0 0.13349,0.95065 -0.501247,4.47283 z"
           style="fill:#000000;fill-opacity:1;fill-rule:evenodd;stroke:#000000;stroke-width:0.08886707;stroke-linecap:butt;stroke-linejoin:miter;stroke-miterlimit:4;stroke-dasharray:none;stroke-opacity:1"
           id="path8724-7"
           inkscape:connector-curvature="0" />
        <path
           d="m 41.632461,70.999303 c 0.593865,3.29539 2.678868,6.71883 2.678868,6.71883 L 15.54582,66.526473 44.311329,55.334803 c 0,0 -2.085003,3.42345 -2.678868,6.71883 -0.634738,3.52218 -0.501248,4.47284 -0.501248,4.47284 0,0 -0.13349,0.95065 0.501248,4.47283 z"
           style="fill:#000000;fill-opacity:1;fill-rule:evenodd;stroke:#000000;stroke-width:0.08886707;stroke-linecap:butt;stroke-linejoin:miter;stroke-miterlimit:4;stroke-dasharray:none;stroke-opacity:1"
           id="path8724-7-5"
           inkscape:connector-curvature="0" />
      </g>
      <g
         id="text8778"
         style="font-style:normal;font-variant:normal;font-weight:normal;font-stretch:normal;font-size:10.45853519px;line-height:125%;font-family:cmr7;-inkscape-font-specification:cmr7;letter-spacing:0px;word-spacing:0px;fill:#000000;fill-opacity:1;stroke:none;stroke-width:0.26146337px;stroke-linecap:butt;stroke-linejoin:miter;stroke-opacity:1"
         transform="scale(0.98820803,1.0119327)"
         aria-label="AeroBulk">
        <path
           id="path8814"
           style="font-style:normal;font-variant:normal;font-weight:normal;font-stretch:normal;font-size:41.83414459px;font-family:Sawasdee;-inkscape-font-specification:Sawasdee;stroke-width:0.26146337px"
           d="m 22.327743,107.50349 h 12.29695 L 28.455791,92.694036 Z m 13.032316,1.83841 h -13.91067 l -3.881097,9.45762 H 15.607316 L 28.394511,87.934585 41.222559,118.79952 h -1.960976 z"
           inkscape:connector-curvature="0" />
        <path
           id="path8816"
           style="font-style:normal;font-variant:normal;font-weight:normal;font-stretch:normal;font-size:41.83414459px;font-family:Sawasdee;-inkscape-font-specification:Sawasdee;stroke-width:0.26146337px"
           d="m 46.451826,106.68641 h 15.054573 q -0.571951,-3.08445 -2.696342,-5.08628 -2.12439,-2.001826 -4.861585,-2.001826 -2.716768,0 -4.841158,2.001826 -2.103963,2.00183 -2.655488,5.08628 z m 17.056402,1.73628 H 46.165851 q 0,3.65641 2.287804,6.20976 2.287805,2.55335 5.41311,2.55335 2.06311,0 4.044512,-1.10305 1.981402,-1.10304 3.023171,-2.96189 l 1.613719,0.91921 q -1.246036,2.22653 -3.676829,3.6564 -2.430793,1.40945 -5.004573,1.40945 -2.594207,0 -4.779878,-1.4503 -2.165244,-1.4503 -3.41128,-3.90152 -1.22561,-2.47165 -1.22561,-5.33141 0,-2.83933 1.246037,-5.29054 1.266463,-2.45122 3.452134,-3.901529 2.206097,-1.470732 4.800304,-1.470732 2.45122,0 4.555183,1.327744 2.12439,1.307317 3.431707,3.533837 1.307317,2.22653 1.532012,4.88202 z"
           inkscape:connector-curvature="0" />
        <path
           id="path8818"
           style="font-style:normal;font-variant:normal;font-weight:normal;font-stretch:normal;font-size:41.83414459px;font-family:Sawasdee;-inkscape-font-specification:Sawasdee;stroke-width:0.26146337px"
           d="m 68.860057,98.086718 h 1.960975 q 0.38811,1.348171 0.38811,2.737192 v 2.57378 q 0.469817,-1.57286 2.185671,-3.26829 1.715853,-1.695426 3.452134,-2.369511 l 2.042682,1.450305 q -1.797561,0 -3.595121,1.266466 -1.777135,1.26646 -2.941464,3.37042 -1.143902,2.08354 -1.143902,4.31006 v 10.64238 h -1.838415 v -17.97561 q 0,-1.756704 -0.51067,-2.737192 z"
           inkscape:connector-curvature="0" />
        <path
           id="path8820"
           style="font-style:normal;font-variant:normal;font-weight:normal;font-stretch:normal;font-size:41.83414459px;font-family:Sawasdee;-inkscape-font-specification:Sawasdee;stroke-width:0.26146337px"
           d="m 92.310058,97.759889 q 2.144817,0 4.105793,0.8375 1.960975,0.8375 3.390853,2.267381 1.429876,1.42988 2.267376,3.41128 0.8375,1.9814 0.8375,4.14664 0,2.18567 -0.8375,4.16708 -0.8375,1.9814 -2.267376,3.41128 -1.429878,1.40945 -3.390853,2.26737 -1.960976,0.8375 -4.105793,0.8375 -4.391768,0 -7.496646,-3.1253 -3.104878,-3.1253 -3.104878,-7.55793 0,-2.90061 1.409452,-5.35183 1.429878,-2.47164 3.86067,-3.881093 2.45122,-1.429878 5.331402,-1.429878 z m -8.783536,10.662801 q 0,3.65641 2.573781,6.27104 2.594207,2.59421 6.250609,2.59421 3.656402,0 6.230183,-2.59421 2.594205,-2.61463 2.594205,-6.27104 0,-3.63597 -2.594205,-6.23018 -2.573781,-2.594206 -6.230183,-2.594206 -3.656402,0 -6.250609,2.594206 -2.573781,2.59421 -2.573781,6.23018 z"
           inkscape:connector-curvature="0" />
        <path
           id="path8822"
           style="font-style:normal;font-variant:normal;font-weight:normal;font-stretch:normal;font-size:41.83414459px;font-family:Sawasdee;-inkscape-font-specification:Sawasdee;stroke-width:0.26146337px"
           d="m 110.67377,116.96111 h 8.86525 q 3.37042,0 5.67865,-2.08354 2.30824,-2.10396 2.30824,-5.025 0,-2.92103 -2.30824,-5.00457 -2.30823,-2.10396 -5.67865,-2.10396 h -8.86525 z m 14.52348,-21.386892 q 0,-2.206097 -1.75671,-3.819816 -1.73628,-1.61372 -4.28963,-1.61372 h -8.47714 v 10.785368 h 8.47714 q 2.57378,0 4.31006,-1.552441 1.73628,-1.572866 1.73628,-3.799391 z m -16.36189,-7.27195 h 10.47896 q 3.18659,0 5.49482,2.165243 2.30823,2.144817 2.30823,5.147561 0,1.879268 -1.00092,3.472561 -0.98048,1.593297 -2.65548,2.573777 2.65548,1.02134 4.2692,3.22744 1.63415,2.2061 1.63415,4.96372 0,2.43079 -1.32774,4.4939 -1.32775,2.06311 -3.59513,3.2683 -2.24695,1.18475 -4.90243,1.18475 h -10.70366 z"
           inkscape:connector-curvature="0" />
        <path
           id="path8824"
           style="font-style:normal;font-variant:normal;font-weight:normal;font-stretch:normal;font-size:41.83414459px;font-family:Sawasdee;-inkscape-font-specification:Sawasdee;stroke-width:0.26146337px"
           d="m 135.22682,98.086718 h 1.83842 v 12.807622 q 0,2.67591 1.61372,4.53476 1.61372,1.85884 3.94237,1.85884 2.34909,0 4.04452,-1.85884 1.71585,-1.87927 1.71585,-4.53476 V 98.086718 h 1.83841 v 12.807622 q 0,3.37043 -2.18567,5.80122 -2.18567,2.41036 -5.3314,2.41036 -3.1253,0 -5.31097,-2.41036 -2.16525,-2.43079 -2.16525,-5.80122 z"
           inkscape:connector-curvature="0" />
        <path
           id="path8826"
           style="font-style:normal;font-variant:normal;font-weight:normal;font-stretch:normal;font-size:41.83414459px;font-family:Sawasdee;-inkscape-font-specification:Sawasdee;stroke-width:0.26146337px"
           d="m 158.88109,118.79952 h -1.83842 V 88.302268 h 1.83842 z"
           inkscape:connector-curvature="0" />
        <path
           id="path8828"
           style="font-style:normal;font-variant:normal;font-weight:normal;font-stretch:normal;font-size:41.83414459px;font-family:Sawasdee;-inkscape-font-specification:Sawasdee;stroke-width:0.26146337px"
           d="m 167.54207,118.79952 h -1.83842 V 88.302268 h 1.83842 v 18.098172 l 9.17164,-8.313722 h 2.75762 l -8.74268,7.925612 10.96921,12.78719 h -2.36951 l -9.92744,-11.56158 -1.85884,1.65457 z"
           inkscape:connector-curvature="0" />
      </g>
    </g>
  </g>
</svg>
